<?xml version="1.0" standalone="no"?>
<!DOCTYPE svg PUBLIC "-//W3C//DTD SVG 20010904//EN"
 "http://www.w3.org/TR/2001/REC-SVG-20010904/DTD/svg10.dtd">
<svg version="1.0" xmlns="http://www.w3.org/2000/svg"
 width="900.000000pt" height="1240.000000pt" viewBox="0 0 900.000000 1240.000000"
 preserveAspectRatio="xMidYMid meet">
<metadata>
Created by potrace 1.16, written by Peter Selinger 2001-2019
</metadata>
<g transform="translate(0.000000,1240.000000) scale(0.100000,-0.100000)"
fill="#000000" stroke="none">
<path d="M6237 12123 c-13 -13 -7 -58 13 -91 12 -20 37 -40 63 -51 55 -24 403
-256 561 -374 154 -116 475 -433 578 -572 166 -223 317 -459 384 -599 27 -57
47 -85 70 -98 40 -23 50 -50 63 -159 6 -52 20 -109 36 -145 14 -32 30 -92 36
-133 15 -108 55 -254 86 -314 25 -50 27 -62 35 -272 4 -121 12 -271 17 -333
l9 -113 41 -38 c58 -54 54 -97 -14 -136 -16 -10 -19 -32 -26 -168 -11 -219
-67 -543 -124 -726 -13 -42 -37 -131 -54 -198 -24 -100 -46 -157 -120 -309
-98 -201 -121 -264 -121 -330 0 -39 -2 -42 -33 -48 -54 -10 -137 -113 -163
-203 -11 -39 -25 -60 -51 -80 -19 -15 -62 -61 -96 -102 -34 -42 -122 -141
-196 -221 -74 -80 -143 -158 -153 -175 -12 -20 -18 -49 -18 -87 l0 -56 -73 5
c-83 6 -53 24 -245 -144 -52 -45 -118 -93 -146 -106 -36 -17 -65 -42 -95 -81
-43 -55 -80 -76 -138 -76 -13 0 -40 -22 -75 -61 -53 -60 -54 -60 -122 -69 -54
-7 -96 -22 -200 -74 -233 -115 -543 -199 -859 -232 -168 -17 -187 -14 -187 28
0 29 -18 58 -67 109 l-44 46 65 43 66 42 -1 347 c0 344 -6 442 -28 449 -17 6
-13 31 9 59 11 15 20 41 20 61 0 19 9 49 20 67 18 28 19 39 10 77 -16 72 -12
125 15 178 62 123 206 205 405 230 118 15 149 26 155 56 3 13 7 35 10 47 l5
24 -572 6 c-314 4 -784 7 -1045 7 l-473 0 0 -45 c0 -65 23 -77 167 -86 181
-13 224 -33 374 -176 l79 -76 0 -114 c0 -85 4 -122 16 -145 17 -34 15 -60 -12
-128 -15 -38 -18 -87 -22 -323 -2 -152 -1 -289 2 -303 4 -16 17 -29 36 -36 37
-13 39 -39 5 -79 -28 -34 -45 -87 -45 -144 0 -22 -3 -77 -7 -122 l-6 -82 -43
-7 c-23 -3 -87 -1 -141 6 -54 6 -138 14 -188 17 -86 5 -96 3 -216 -36 -135
-44 -193 -51 -203 -25 -3 9 -6 43 -6 77 0 39 -6 75 -18 96 -17 35 -25 39 -139
70 -22 6 -65 28 -94 48 -69 47 -228 123 -275 130 -43 7 -64 -13 -64 -58 0 -37
-22 -53 -57 -42 -21 7 -33 23 -49 64 -12 30 -44 79 -73 110 -32 36 -51 66 -51
81 0 35 -14 49 -114 114 -88 57 -143 104 -182 154 -10 14 -55 53 -99 87 -91
69 -157 136 -239 241 -34 43 -73 80 -96 92 -48 24 -152 146 -185 216 -14 29
-44 75 -69 103 -29 35 -46 65 -50 92 -15 91 -87 189 -140 189 -52 0 -60 11
-45 59 10 32 10 53 1 92 -16 68 -72 188 -106 224 -34 37 -48 70 -69 162 -19
84 -44 138 -89 189 -29 33 -31 38 -20 68 26 71 11 125 -52 185 -28 27 -45 35
-86 39 -35 3 -54 10 -60 23 -11 20 -12 19 59 71 83 62 85 67 66 199 -9 63 -20
220 -24 349 -6 144 -14 245 -21 261 -10 22 -9 39 3 90 32 127 58 307 67 464
12 192 13 198 56 298 19 43 38 104 43 136 5 32 25 90 45 129 19 39 42 101 50
139 8 37 33 106 55 152 23 47 41 90 41 97 0 6 27 51 60 100 33 49 65 106 71
126 5 21 37 73 70 115 33 43 77 105 99 138 21 33 55 84 76 113 49 68 253 283
288 301 14 8 26 23 26 33 0 31 69 96 268 252 250 195 269 208 446 304 83 44
165 92 183 106 39 32 43 68 11 90 -50 35 -120 14 -363 -107 -251 -124 -385
-217 -385 -264 0 -28 -17 -39 -67 -46 -67 -8 -132 -51 -154 -103 -17 -37 -32
-51 -100 -90 -79 -46 -127 -88 -246 -216 -38 -41 -74 -70 -90 -73 -44 -9 -58
-20 -61 -46 -6 -55 -15 -72 -72 -132 -33 -35 -68 -84 -79 -109 -11 -27 -32
-53 -49 -63 -40 -24 -62 -64 -69 -127 -7 -64 -18 -88 -41 -88 -55 0 -112 -72
-112 -143 0 -26 -12 -50 -50 -97 -61 -77 -136 -194 -151 -239 -9 -27 -8 -43 6
-84 22 -68 10 -107 -33 -107 -53 0 -79 -50 -89 -169 -7 -86 -14 -107 -43 -116
-11 -4 -29 -24 -40 -46 -23 -45 -78 -259 -86 -339 -3 -30 -16 -86 -29 -125
-35 -106 -77 -363 -81 -500 -2 -66 -8 -140 -14 -165 -11 -44 -9 -141 8 -345 5
-69 12 -97 30 -122 29 -41 28 -49 -8 -65 -34 -15 -34 -16 -19 -55 6 -15 14
-95 17 -178 7 -136 10 -153 31 -182 24 -31 24 -34 14 -136 -13 -126 -6 -170
45 -285 44 -98 49 -116 61 -212 7 -54 16 -77 40 -107 17 -21 48 -78 70 -128
77 -178 181 -388 222 -449 23 -33 72 -92 109 -131 76 -79 88 -96 157 -215 64
-113 164 -246 300 -401 126 -144 157 -169 216 -176 76 -10 118 -42 212 -163
61 -79 101 -148 116 -200 7 -25 16 -50 21 -56 5 -7 42 -15 82 -19 l74 -7 80
-72 c129 -116 408 -306 481 -326 53 -15 142 -12 175 5 19 10 59 15 126 15 l98
0 7 -77 c3 -43 7 -87 8 -97 2 -16 32 -30 164 -73 223 -73 403 -117 637 -155
l199 -33 -5 -322 -5 -323 52 -30 c90 -52 108 -90 41 -90 -18 0 -41 -6 -51 -14
-17 -12 -18 -24 -12 -152 15 -318 134 -1102 333 -2189 78 -427 98 -501 129
-475 16 14 29 83 60 325 37 291 68 480 137 844 44 234 59 328 51 340 -5 9 -26
20 -46 25 -21 5 -37 12 -37 15 0 3 20 18 43 33 76 48 79 54 88 190 4 75 14
138 23 161 45 105 79 373 80 638 l1 205 -27 33 c-40 46 -35 74 21 134 l26 28
3 305 c2 167 7 304 11 304 4 0 61 7 126 15 159 20 260 41 348 71 42 14 113 28
170 33 63 5 103 13 115 23 29 26 74 45 137 58 82 17 162 48 336 131 82 38 172
77 201 86 29 8 83 30 119 48 127 64 620 409 700 489 l40 41 -7 125 c-6 115 -5
127 13 149 12 15 24 21 32 16 18 -11 41 -69 41 -103 0 -15 6 -37 14 -47 13
-18 16 -18 41 -5 38 20 163 147 314 319 413 470 516 654 774 1381 57 162 124
346 147 408 l43 114 -47 47 c-25 26 -46 51 -46 57 0 6 26 57 57 115 31 57 67
124 81 149 l24 45 -6 425 c-6 477 -15 599 -52 750 -31 126 -45 154 -96 202
-43 40 -45 62 -7 104 28 30 24 62 -32 253 -58 200 -93 283 -150 358 -40 51
-58 100 -59 155 0 46 -38 132 -112 255 -103 171 -408 629 -512 768 -133 177
-309 347 -466 448 -24 16 -36 33 -41 57 -12 56 -102 122 -402 294 -341 195
-538 282 -570 249z"/>
</g>
</svg>
